<svg xmlns="http://www.w3.org/2000/svg" viewBox="0 0 200 200"><path d="M163.4 62.6c-6.5-11.1-15.3-19.9-26.4-26.4-11.1-6.5-23.3-9.7-36.4-9.7-13.2 0-25.3 3.2-36.4 9.7-11.1 6.5-19.9 15.3-26.4 26.4C31.3 73.7 28 85.8 28 99c0 15.8 4.6 30 13.8 42.7 9.2 12.6 21.1 21.4 35.8 26.2 1.7.3 3 .1 3.8-.7.8-.8 1.2-1.7 1.2-2.8v-13.5l-2.2.4c-1.4.3-3.1.4-5.2.3-2.1 0-4.3-.3-6.6-.7-2.3-.4-4.4-1.4-6.3-2.8-2-1.5-3.3-3.4-4.2-5.8l-.9-2.2c-.6-1.4-1.6-3.1-3-4.8-1.4-1.8-2.7-3-4.1-3.6l-.7-.5c-.4-.3-.8-.7-1.2-1.1-.4-.4-.7-.9-.8-1.3-.2-.4 0-.8.5-1.1.5-.3 1.4-.4 2.7-.4l1.9.3c1.3.3 2.8 1 4.7 2.3 1.9 1.3 3.4 2.9 4.6 4.9 1.4 2.6 3.2 4.6 5.2 5.9 2 1.4 4.1 2 6.2 2 2.1 0 3.9-.2 5.4-.5 1.5-.3 2.9-.8 4.3-1.4.6-4.2 2.1-7.5 4.6-9.7-3.6-.4-6.8-.9-9.7-1.7-2.9-.8-5.8-2-8.9-3.7-3.1-1.7-5.6-3.8-7.6-6.3s-3.7-5.8-5-9.9c-1.3-4.1-1.9-8.8-1.9-14.2 0-7.6 2.5-14.1 7.5-19.5-2.3-5.7-2.1-12.2.7-19.3 1.8-.6 4.5-.1 8.1 1.3 3.6 1.4 6.2 2.6 7.9 3.6 1.7 1 3 1.9 4 2.6 5.9-1.6 11.9-2.5 18.1-2.5s12.3.8 18.1 2.5l3.6-2.3c2.5-1.5 5.4-2.9 8.7-4.2 3.3-1.3 5.9-1.6 7.7-1 2.8 7.1 3.1 13.5.8 19.3 5 5.4 7.5 11.8 7.5 19.5 0 5.4-.6 10.1-1.9 14.2-1.3 4.1-3 7.4-5 9.9s-4.6 4.6-7.7 6.3c-3.1 1.7-6 2.9-8.9 3.7-2.9.8-6.1 1.3-9.7 1.7 3.3 2.8 4.9 7.3 4.9 13.4v19.9c0 1.1.4 2.1 1.2 2.8.8.8 2 1 3.7.7 14.6-4.8 26.5-13.6 35.8-26.2 9.2-12.6 13.8-26.8 13.8-42.7-.1-13.2-3.4-25.3-9.9-36.4z"/></svg>