<svg id="Layer_1" xmlns="http://www.w3.org/2000/svg" viewBox="0 0 200 200"><style>.st0{fill:#000}</style><path class="st0" d="M99.3 36.7c20.3 0 22.7.1 30.7.4 7.4.3 11.4 1.6 14.1 2.6 3.5 1.4 6.1 3 8.7 5.7 2.7 2.7 4.3 5.2 5.7 8.7 1 2.7 2.3 6.7 2.6 14.1.4 8 .4 10.4.4 30.7s-.1 22.7-.4 30.7c-.3 7.4-1.6 11.4-2.6 14.1-1.4 3.5-3 6.1-5.7 8.7-2.7 2.7-5.2 4.3-8.7 5.7-2.7 1-6.7 2.3-14.1 2.6-8 .4-10.4.4-30.7.4s-22.7-.1-30.7-.4c-7.4-.3-11.4-1.6-14.1-2.6-3.5-1.4-6.1-3-8.7-5.7-2.7-2.7-4.3-5.2-5.7-8.7-1-2.7-2.3-6.7-2.6-14.1-.4-8-.4-10.4-.4-30.7s.1-22.7.4-30.7c.3-7.4 1.6-11.4 2.6-14.1 1.4-3.5 3-6.1 5.7-8.7 2.7-2.7 5.2-4.3 8.7-5.7 2.7-1 6.7-2.3 14.1-2.6 8-.4 10.4-.4 30.7-.4m0-13.7c-20.6 0-23.2.1-31.3.5-8.1.4-13.6 1.7-18.5 3.5-5 1.9-9.2 4.5-13.5 8.8-4.2 4.2-6.8 8.5-8.8 13.5-1.9 4.8-3.2 10.4-3.5 18.5-.4 8.1-.5 10.7-.5 31.3s.1 23.2.5 31.3c.4 8.1 1.7 13.6 3.5 18.5 1.9 5 4.5 9.2 8.8 13.5 4.2 4.2 8.5 6.8 13.5 8.8 4.8 1.9 10.4 3.2 18.5 3.5 8.1.4 10.7.5 31.3.5s23.2-.1 31.3-.5c8.1-.4 13.6-1.7 18.5-3.5 5-1.9 9.2-4.5 13.5-8.8 4.2-4.2 6.8-8.5 8.8-13.5 1.9-4.8 3.2-10.4 3.5-18.5.4-8.1.5-10.7.5-31.3s-.1-23.2-.5-31.3c-.4-8.1-1.7-13.6-3.5-18.5-1.9-5-4.5-9.2-8.8-13.5-4.2-4.2-8.5-6.8-13.5-8.8-4.8-1.9-10.4-3.2-18.5-3.5-8-.4-10.6-.5-31.3-.5z"/><path class="st0" d="M99.3 60c-21.6 0-39 17.5-39 39s17.5 39 39 39 39-17.5 39-39-17.4-39-39-39zm0 64.3C85.3 124.3 74 113 74 99s11.3-25.3 25.3-25.3S124.6 85 124.6 99s-11.3 25.3-25.3 25.3z"/><circle class="st0" cx="139.9" cy="58.4" r="9.1"/></svg>